<?xml version="1.0" standalone="no"?>
<!DOCTYPE svg PUBLIC "-//W3C//DTD SVG 20010904//EN"
 "http://www.w3.org/TR/2001/REC-SVG-20010904/DTD/svg10.dtd">
<svg version="1.0" xmlns="http://www.w3.org/2000/svg"
 width="512.000000pt" height="512.000000pt" viewBox="0 0 512.000000 512.000000"
 preserveAspectRatio="xMidYMid meet">

<g transform="translate(0.000000,512.000000) scale(0.100000,-0.100000)"
fill="#000000" stroke="none">
<path d="M4156 4229 c-22 -17 -26 -28 -26 -70 l0 -49 -44 0 c-59 0 -99 -33
-99 -80 0 -46 32 -70 94 -70 l49 0 0 -44 0 -44 -104 -4 c-122 -4 -146 -17
-146 -78 0 -59 19 -69 140 -72 l105 -3 3 -97 3 -96 -173 -4 c-167 -3 -175 -4
-226 -31 -99 -52 -161 -137 -182 -247 -12 -64 -1 -100 36 -120 l24 -13 0 -208
0 -208 -35 -10 c-50 -14 -93 -47 -115 -91 -16 -32 -20 -59 -20 -145 0 -58 -4
-105 -9 -105 -4 0 -29 -18 -54 -40 -39 -35 -54 -60 -118 -212 l-74 -173 -5
362 c-5 347 -6 363 -26 390 -34 46 -69 52 -316 52 l-227 1 -3 215 -3 215 -33
32 -32 33 -133 3 c-123 3 -134 2 -160 -18 -37 -29 -38 -80 -1 -109 23 -18 41
-21 120 -21 l94 0 0 -175 0 -175 -210 0 -210 0 0 474 c0 470 0 473 -22 501
-40 51 -66 55 -333 55 -267 0 -293 -4 -333 -55 -21 -27 -22 -37 -22 -251 l0
-224 -236 0 c-253 0 -290 -6 -317 -54 -9 -15 -13 -132 -17 -416 l-5 -395 -320
-5 c-355 -6 -357 -6 -391 -72 -26 -50 -13 -120 68 -363 67 -203 75 -221 101
-229 37 -13 79 3 95 37 12 24 7 47 -54 239 -37 117 -69 219 -72 226 -6 18 737
18 760 0 9 -7 37 -74 63 -148 59 -169 79 -207 133 -245 l44 -30 1005 -3 1006
-2 44 21 c61 29 83 63 154 234 34 83 69 158 77 167 13 16 52 18 444 20 l430 3
19 24 c25 30 24 76 -1 101 -19 19 -33 20 -395 20 l-375 0 0 89 c0 72 3 90 16
95 9 3 280 6 603 6 443 0 590 -3 599 -12 7 -7 12 -44 12 -95 l0 -83 -100 0
c-87 0 -103 -3 -120 -20 -25 -25 -26 -71 -1 -101 19 -23 24 -24 191 -27 131
-3 172 -6 176 -17 6 -16 -218 -726 -240 -759 -33 -51 -136 -40 -214 23 -22 17
-66 43 -97 57 -50 23 -66 26 -139 22 -88 -5 -132 -22 -212 -83 -89 -68 -163
-66 -258 5 -79 58 -115 73 -193 78 -96 6 -149 -10 -231 -70 -115 -83 -173 -85
-275 -10 -81 60 -141 82 -222 82 -81 0 -141 -22 -222 -82 -102 -75 -160 -73
-275 10 -82 60 -135 76 -231 70 -78 -5 -114 -20 -193 -78 -95 -71 -168 -73
-255 -6 -91 69 -125 81 -229 81 -104 0 -138 -12 -229 -81 -87 -67 -160 -66
-252 3 -82 61 -117 76 -196 81 -96 6 -149 -10 -231 -70 -115 -83 -173 -85
-275 -10 -76 56 -141 82 -206 82 -42 0 -53 -4 -70 -26 -45 -57 -16 -110 67
-123 37 -6 72 -21 120 -54 93 -64 134 -79 217 -79 84 0 141 19 209 71 78 58
93 64 156 59 49 -3 67 -11 112 -45 73 -55 110 -73 174 -83 104 -17 171 4 298
95 42 30 56 35 106 35 50 0 64 -5 106 -35 127 -91 194 -112 298 -95 64 10 101
28 174 83 45 34 63 42 112 45 63 5 78 -1 156 -59 68 -52 125 -71 210 -71 83 0
126 16 227 85 60 42 74 47 122 47 48 0 62 -5 122 -47 101 -69 144 -85 227 -85
85 0 142 19 210 71 78 58 93 64 156 59 49 -4 66 -11 115 -47 84 -63 136 -83
219 -84 92 0 126 12 222 78 72 51 83 55 135 55 45 0 64 -5 95 -27 21 -15 60
-41 86 -59 58 -39 145 -57 222 -44 64 10 103 29 173 82 31 23 66 41 90 44 60
9 89 23 102 50 16 35 14 48 -10 78 -17 22 -28 26 -70 26 -27 0 -49 3 -49 8 0
4 43 142 95 306 52 165 95 312 95 328 0 67 -56 149 -116 168 l-32 11 -4 108
c-3 95 -6 112 -28 144 -22 33 -73 66 -122 81 -16 5 -18 24 -18 214 l0 208 30
22 c26 20 30 29 30 72 0 121 -95 254 -213 298 -50 19 -78 22 -212 22 l-155 0
0 100 0 100 105 0 c92 0 108 3 125 20 22 22 26 60 10 90 -15 27 -64 40 -156
40 l-84 0 0 45 0 45 50 0 c61 0 90 24 90 74 0 47 -37 76 -96 76 l-44 0 0 45
c0 81 -65 120 -124 74z m-2266 -819 l0 -190 -205 0 -205 0 0 190 0 190 205 0
205 0 0 -190z m2743 -73 c35 -27 63 -64 54 -73 -2 -2 -224 -3 -492 -2 l-489 3
34 39 c59 67 53 66 476 63 l381 -2 36 -28z m17 -437 l0 -210 -445 0 -445 0 0
210 0 210 445 0 445 0 0 -210z m-3320 -5 l0 -175 -210 0 -210 0 0 175 0 175
210 0 210 0 0 -175z m560 0 l0 -175 -205 0 -205 0 0 175 0 175 205 0 205 0 0
-175z m-565 -505 l0 -175 -110 -3 -110 -3 -20 37 c-25 47 -87 92 -137 100
l-38 7 0 108 0 109 208 -2 207 -3 0 -175z m565 0 l0 -180 -205 0 -205 0 0 180
0 180 205 0 205 0 0 -180z m570 0 l0 -180 -210 0 -210 0 0 173 c0 96 3 177 7
180 3 4 98 7 210 7 l203 0 0 -180z m570 0 l0 -180 -210 0 -210 0 0 180 0 180
210 0 210 0 0 -180z m-1700 -405 l0 -75 -48 0 c-27 0 -56 6 -65 13 -13 9 -57
113 -57 134 0 1 38 3 85 3 l85 0 0 -75z m560 0 l0 -75 -205 0 -205 0 0 75 0
75 205 0 205 0 0 -75z m570 0 l0 -75 -210 0 -210 0 0 75 0 75 210 0 210 0 0
-75z m570 0 l0 -75 -210 0 -210 0 0 75 0 75 210 0 210 0 0 -75z"/>
<path d="M3899 3011 c-21 -17 -24 -29 -27 -103 -3 -73 -1 -86 18 -110 27 -35
80 -38 110 -8 17 17 20 33 20 110 0 77 -3 93 -20 110 -25 25 -71 26 -101 1z"/>
<path d="M4142 3007 c-19 -20 -22 -35 -22 -110 0 -101 15 -127 74 -127 56 0
76 35 76 130 0 63 -4 82 -21 104 -27 34 -77 36 -107 3z"/>
<path d="M4392 3007 c-19 -20 -22 -35 -22 -110 0 -101 15 -127 74 -127 56 0
76 35 76 130 0 63 -4 82 -21 104 -27 34 -77 36 -107 3z"/>
<path d="M20 1128 c-51 -55 -1 -128 90 -128 17 0 50 -17 88 -44 93 -69 119
-79 208 -84 100 -5 130 4 235 74 74 49 87 54 136 54 60 0 75 -6 149 -61 66
-50 121 -69 204 -69 96 0 114 7 254 103 55 38 137 38 192 0 140 -96 158 -103
254 -103 80 0 133 17 196 62 91 65 97 68 155 68 52 0 63 -5 138 -54 105 -70
135 -79 235 -74 90 5 119 17 209 84 55 41 63 44 122 44 59 0 67 -3 123 -44 93
-69 119 -79 208 -84 100 -5 130 4 235 74 74 49 87 54 136 54 60 0 75 -6 149
-61 66 -50 121 -69 204 -69 96 0 114 7 254 103 55 38 137 38 192 0 140 -96
158 -103 254 -103 85 0 135 18 218 77 47 33 80 49 116 54 36 6 58 16 74 34 27
32 28 55 1 89 -18 23 -28 26 -77 26 -66 0 -110 -18 -205 -83 -62 -42 -74 -47
-125 -47 -59 0 -65 3 -156 68 -63 45 -116 62 -196 62 -83 0 -138 -19 -204 -69
-74 -55 -89 -61 -149 -61 -42 0 -63 6 -93 27 -101 69 -122 81 -158 93 -53 17
-191 9 -235 -14 -18 -10 -60 -38 -93 -62 -55 -40 -65 -44 -118 -44 -53 0 -65
4 -127 47 -104 71 -136 83 -228 83 -92 0 -124 -12 -228 -83 -62 -43 -74 -47
-127 -47 -53 0 -63 4 -118 44 -93 69 -119 79 -208 84 -89 5 -137 -6 -194 -45
-125 -84 -122 -83 -180 -83 -57 0 -63 3 -154 68 -63 45 -116 62 -196 62 -83 0
-138 -19 -204 -69 -74 -55 -89 -61 -148 -61 -55 0 -54 -1 -178 83 -57 39 -105
50 -194 45 -89 -5 -115 -15 -208 -84 -55 -40 -65 -44 -118 -44 -53 0 -65 4
-127 47 -95 65 -139 83 -205 83 -46 0 -61 -4 -78 -22z"/>
</g>
</svg>
